<svg viewBox="0 0 128 128" width="28" height="28"><path fill="#9B4F96" d="M115.4 30.7L67.1 2.9c-1.9-1.1-4.2-1.1-6.1 0L12.6 30.7c-1.9 1.1-3.1 3.2-3.1 5.3v55.7c0 2.2 1.2 4.2 3.1 5.3l48.3 27.9c1.9 1.1 4.2 1.1 6.1 0l48.3-27.9c1.9-1.1 3.1-3.2 3.1-5.3V36c-.1-2.1-1.2-4.2-3-5.3zM64 88.5c-13.5 0-24.5-11-24.5-24.5S50.5 39.5 64 39.5c9.3 0 17.4 5.2 21.5 12.8l-12.1 7c-2.1-3.8-6.2-6.4-10.8-6.4-6.9 0-12.5 5.6-12.5 12.5S55.7 78 62.6 78c4 0 7.5-1.9 9.8-4.8l11.7 6.8c-4.7 5.3-11.5 8.5-18.7 8.5z"/><path fill="#9B4F96" d="M89 58.3h-4v-4h-2.7v4h-4v2.7h4v4h2.7v-4h4zm11 0h-4v-4h-2.7v4h-4v2.7h4v4H96v-4h4z"/></svg>