<svg viewBox="0 0 128 128" width="28" height="28"><linearGradient id="py1" x1="70.2" y1="1078.5" x2="170.3" y2="1238.1" gradientTransform="matrix(.563 0 0 -.568 -29.2 707.8)" gradientUnits="userSpaceOnUse"><stop offset="0" stop-color="#5A9FD4"/><stop offset="1" stop-color="#306998"/></linearGradient><linearGradient id="py2" x1="209.5" y1="1098" x2="173.2" y2="1200.1" gradientTransform="matrix(.563 0 0 -.568 -29.2 707.8)" gradientUnits="userSpaceOnUse"><stop offset="0" stop-color="#FFD43B"/><stop offset="1" stop-color="#FFE873"/></linearGradient><path fill="url(#py1)" d="M63.4 1.2C35.1 1.2 19.6 13.1 19.6 32.5v16.7h43.7v5.6H14.1C5.6 54.8 0 67 0 80.4c0 13.4 5.6 25.7 14.1 25.7h23.1V89.3c0-9.6 8.2-18.1 18.2-18.1h31.1c8.4 0 15.2-7 15.2-15.4V20.4c0-8.4-6.8-16.3-15.2-17.8-5.3-1-10.9-1.4-22.9-1.4h-.2zm-23.6 11c3.1 0 5.7 2.6 5.7 5.8s-2.5 5.8-5.7 5.8-5.6-2.6-5.6-5.8 2.5-5.8 5.6-5.8z"/><path fill="url(#py2)" d="M91.1 54.8V71.6c0 9.6-8.5 18.1-18.2 18.1H41.8c-8.4 0-15.2 7.2-15.2 15.6v35.4c0 8.4 7.3 13.3 15.2 15.6 9.5 2.8 18.6 3.3 31.1 0 8.3-2.2 15.2-6.6 15.2-15.6V127H57V121.4h46.9c8.4 0 11.6-5.9 15.2-15.6 3.7-10 3.5-19.6 0-31.2-2.5-8.3-7.3-15.6-15.2-15.6H91.1v-4.2zm-17.5 66c3.1 0 5.7 2.6 5.7 5.8s-2.5 5.8-5.7 5.8-5.6-2.6-5.6-5.8c.1-3.2 2.5-5.8 5.6-5.8z"/></svg>