<svg xmlns="http://www.w3.org/2000/svg" class="{{ include.class | default: 'h-5 w-5' }}" viewBox="0 0 24 24" fill="currentColor" aria-hidden="true">
  <path fill-rule="evenodd" clip-rule="evenodd" d="M12 .5a12 12 0 0 0-3.79 23.39c.6.11.82-.26.82-.58v-2.04c-3.34.73-4.04-1.61-4.04-1.61-.55-1.39-1.34-1.76-1.34-1.76-1.09-.75.08-.74.08-.74 1.2.08 1.83 1.24 1.83 1.24 1.07 1.83 2.81 1.3 3.5.99.11-.78.42-1.3.76-1.6-2.67-.3-5.48-1.34-5.48-5.96 0-1.32.47-2.39 1.24-3.24-.12-.3-.54-1.52.12-3.17 0 0 1.01-.32 3.3 1.23a11.5 11.5 0 0 1 6 0c2.29-1.55 3.3-1.23 3.3-1.23.66 1.65.24 2.87.12 3.17.77.85 1.24 1.92 1.24 3.24 0 4.63-2.81 5.66-5.49 5.96.43.37.81 1.1.81 2.22v3.29c0 .32.21.7.82.58A12 12 0 0 0 12 .5z"/>
</svg>
